<svg xmlns="http://www.w3.org/2000/svg" width="220" height="300" viewBox="0 0 220 300"><defs><linearGradient id="suit" x1="0" y1="0" x2="1" y2="1"><stop stop-color="#ffffff"/><stop offset=".52" stop-color="#f3f6ff"/><stop offset="1" stop-color="#c7d4e8"/></linearGradient><radialGradient id="visor" cx="35%" cy="22%" r="78%"><stop stop-color="#e5fbff"/><stop offset=".5" stop-color="#80cbe9"/><stop offset="1" stop-color="#294a78"/></radialGradient><linearGradient id="hair" x1="0" y1="0" x2="1" y2="1"><stop stop-color="#6b3e44"/><stop offset=".55" stop-color="#3b2533"/><stop offset="1" stop-color="#1f1724"/></linearGradient><linearGradient id="skin" x1="0" y1="0" x2="1" y2="1"><stop stop-color="#fff0e5"/><stop offset="1" stop-color="#f5c4aa"/></linearGradient><filter id="shadow" x="-35%" y="-35%" width="170%" height="190%"><feDropShadow dx="0" dy="9" stdDeviation="7" flood-color="#17132f" flood-opacity=".32"/></filter><filter id="glow" x="-60%" y="-60%" width="220%" height="220%"><feGaussianBlur stdDeviation="5"/></filter></defs><g filter="url(#shadow)"><path d="M88 184 Q76.5 195.5 65 207" fill="none" stroke="#3b3d59" stroke-width="34" stroke-linecap="round"/><path d="M88 184 Q76.5 195.5 65 207" fill="none" stroke="url(#suit)" stroke-width="25" stroke-linecap="round"/><path d="M132 184 Q143.5 195.5 155 207" fill="none" stroke="#3b3d59" stroke-width="34" stroke-linecap="round"/><path d="M132 184 Q143.5 195.5 155 207" fill="none" stroke="url(#suit)" stroke-width="25" stroke-linecap="round"/><path d="M50 140 Q40.0 152.5 30 165" fill="none" stroke="#3b3d59" stroke-width="28" stroke-linecap="round"/><path d="M50 140 Q40.0 152.5 30 165" fill="none" stroke="url(#suit)" stroke-width="20" stroke-linecap="round"/><path d="M170 140 Q180.0 152.5 190 165" fill="none" stroke="#3b3d59" stroke-width="28" stroke-linecap="round"/><path d="M170 140 Q180.0 152.5 190 165" fill="none" stroke="url(#suit)" stroke-width="20" stroke-linecap="round"/><rect x="73" y="141" width="74" height="100" rx="32" fill="#3b3d59"/><rect x="79" y="144" width="62" height="91" rx="29" fill="url(#suit)"/><rect x="90" y="172" width="40" height="26" rx="9" fill="#e1e8f4" stroke="#666b86" stroke-width="4"/><circle cx="101" cy="185" r="5" fill="#ff9b42"/><circle cx="118" cy="185" r="5" fill="#62cff5"/><path d="M92 211 H128" stroke="#9caabd" stroke-width="5" stroke-linecap="round"/><rect x="66" y="38" width="88" height="122" rx="45" fill="#3b3d59"/><rect x="72" y="42" width="76" height="114" rx="40" fill="url(#suit)"/><circle cx="110" cy="90" r="50" fill="#3b3d59"/><circle cx="110" cy="90" r="44" fill="url(#visor)"/><circle cx="110" cy="94" r="34" fill="url(#skin)"/><path d="M78 87 C84 60 104 51 132 61 C143 65 149 77 145 88 C132 78 116 75 99 81 C91 84 84 86 78 87Z" fill="url(#hair)"/><path d="M84 75 C94 56 117 49 137 63" fill="none" stroke="#82515a" stroke-width="7" stroke-linecap="round" opacity=".55"/><ellipse cx="96" cy="101" rx="8" ry="11" fill="#251d31"/><ellipse cx="124" cy="101" rx="8" ry="11" fill="#251d31"/><circle cx="93" cy="97" r="2.7" fill="#fff"/><circle cx="121" cy="97" r="2.7" fill="#fff"/><path d="M101 119 Q110 128 119 119" fill="#ff7591" stroke="#8f4357" stroke-width="3.5" stroke-linejoin="round"/><ellipse cx="87" cy="116" rx="8" ry="4" fill="#ff9eb2" opacity=".8"/><ellipse cx="133" cy="116" rx="8" ry="4" fill="#ff9eb2" opacity=".8"/><path d="M82 63 C94 44 122 42 139 56" stroke="#fff" stroke-width="8" stroke-linecap="round" opacity=".75"/><circle cx="138" cy="65" r="9" fill="#fff" opacity=".38" filter="url(#glow)"/><rect x="58" y="74" width="14" height="36" rx="7" fill="#7fcaf0" stroke="#3b3d59" stroke-width="5"/><rect x="148" y="74" width="14" height="36" rx="7" fill="#7fcaf0" stroke="#3b3d59" stroke-width="5"/><path d="M82 159 L67 165" stroke="#ff8c45" stroke-width="7" stroke-linecap="round"/><path d="M138 159 L153 165" stroke="#ff8c45" stroke-width="7" stroke-linecap="round"/><ellipse cx="30" cy="165" rx="14" ry="10" fill="#35384f"/><ellipse cx="190" cy="165" rx="14" ry="10" fill="#35384f"/><ellipse cx="65" cy="207" rx="19" ry="11" fill="#35384f"/><ellipse cx="155" cy="207" rx="19" ry="11" fill="#35384f"/></g></svg>